<?xml version="1.0" encoding="UTF-8"?>
<svg id="Camada_1" xmlns="http://www.w3.org/2000/svg" version="1.1" viewBox="0 0 958.3 550">
  <!-- Generator: Adobe Illustrator 30.1.0, SVG Export Plug-In . SVG Version: 2.1.1 Build 136)  -->
  <defs>
    <style>
      .st0 {
        fill: #708286;
      }

      .st1 {
        fill: #d6c4a8;
      }

      .st2 {
        fill: #535949;
      }

      .st3 {
        fill: #995531;
      }

      .st4 {
        fill: #bda275;
      }

      .st5 {
        fill: #2f3327;
      }
    </style>
  </defs>
  <g>
    <path class="st2" d="M478.2,315.2h138.6c-46.1,0-82.5-6.4-111.8-16-16.6,9.5-26.8,16-26.8,16"/>
    <path class="st3" d="M294,205.4c-80.6,21.7-137.3,109.8-137.3,109.8h100.5s66.2-49.3,136.3-89.5c-31-29.1-78.4-25.9-99.5-20.2"/>
    <path class="st0" d="M646.7,235.1c-44.8-31.7-88.3-60.6-123.3-60.6s-81.6,23.4-130,51.2c22.7,21.6,52.9,54.2,111.5,73.5,31.9-18.3,87.8-47.8,141.8-64.1"/>
    <path class="st5" d="M714.2,223.4c-20.7,0-43.9,4.6-67.4,11.7,53.9,38.1,109.7,80.1,154.9,80.1,0,0,5.3-91.7-87.5-91.7"/>
    <path class="st1" d="M505,299.1c29.3,9.7,65.7,16,111.8,16h184.8c-45.1,0-100.9-42-154.9-80.1-54,16.2-109.8,45.8-141.8,64.1"/>
    <path class="st4" d="M393.5,225.7c-70.1,40.2-136.3,89.5-136.3,89.5h221s10.1-6.5,26.8-16c-58.6-19.3-88.8-51.9-111.5-73.5"/>
  </g>
  <g>
    <g>
      <path class="st5" d="M486.5,410.5v.2h0s0-.1,0-.2ZM486.5,423.2c0,0,0-.1,0-.2h0v.2Z"/>
      <path class="st5" d="M486.5,389.6v20.9c0,0,0,.1,0,.2h0v-.2c-.4-1.6-.8-3.1-1.5-4.4-.7-1.4-1.5-2.5-2.4-3.4-.9-.9-2-1.6-3.2-2.1s-2.5-.7-3.9-.7-2.5.2-3.7.6c-1.1.4-2.2.9-3.2,1.6-1,.7-1.8,1.6-2.6,2.6-.8,1-1.4,2.2-2,3.4-.5,1.2-.9,2.6-1.2,4.1-.3,1.5-.4,3.1-.4,4.7s.1,3.3.4,4.8c.3,1.5.7,2.9,1.2,4.1.5,1.3,1.2,2.4,2,3.4.8,1,1.6,1.9,2.6,2.6,1,.7,2,1.2,3.2,1.6,1.1.4,2.3.6,3.6.6s2.7-.2,3.9-.7c1.2-.5,2.3-1.2,3.2-2.1.9-.9,1.7-2.1,2.4-3.4.6-1.3,1.1-2.8,1.5-4.4v-.2h0s0,0,0,.2v9.8h8.8v-43.5h-8.8ZM486.3,419.7c-.2.8-.4,1.6-.7,2.3-.3.7-.7,1.3-1.1,1.9-.4.5-1,1-1.5,1.4-.6.4-1.2.6-1.9.8-.7.2-1.4.3-2.3.3-1.2,0-2.3-.2-3.2-.6-.9-.4-1.7-1-2.3-1.8-.6-.8-1.1-1.8-1.4-3-.3-1.2-.5-2.6-.5-4.1s.2-2.9.5-4.1c.3-1.2.8-2.2,1.4-3,.6-.8,1.4-1.4,2.4-1.8.9-.4,2-.6,3.2-.6s1.5,0,2.3.3c.7.2,1.3.4,1.9.8.6.4,1.1.8,1.5,1.4.4.5.8,1.1,1.1,1.9s.5,1.5.7,2.4c.1.8.2,1.8.2,2.8s0,1.9-.2,2.8Z"/>
      <path class="st5" d="M522.7,424.6h0s0,0,0,0h0Z"/>
      <path class="st5" d="M530.4,407.9c-.7-1.8-1.8-3.2-3.1-4.4-1.3-1.2-3-2.1-4.9-2.7-1.9-.6-4.2-1-6.6-1s-4.6.3-6.5.9c-1.9.6-3.6,1.5-4.9,2.6-1.3,1.1-2.4,2.4-3.1,4-.7,1.6-1.1,3.4-1.1,5.3h8.8c0-.9.1-1.7.4-2.4.3-.7.7-1.3,1.2-1.8.5-.5,1.2-.9,2.1-1.1.8-.3,1.8-.4,2.9-.4s2.1.2,3,.5c.9.3,1.6.8,2.2,1.4.6.6,1.1,1.4,1.4,2.3.3.9.5,1.9.5,3v.7h-10c-2.1,0-4,.2-5.7.7-1.7.4-3.1,1.1-4.2,1.9-1.1.8-2,1.9-2.7,3.1-.6,1.2-.9,2.6-.9,4.1s.3,2.7.8,3.9c.5,1.2,1.3,2.2,2.2,3,1,.8,2.1,1.5,3.5,1.9,1.3.4,2.8.7,4.5.7s2.1,0,3-.3c1-.2,1.9-.5,2.7-.9.8-.4,1.6-.8,2.3-1.4.7-.5,1.4-1.1,1.9-1.9.6-.7,1.1-1.5,1.5-2.3.4-.8.7-1.7.9-2.6h0c0,0,0,0,0,0,0,0,0,0,0,0v8.4h8.8v-19.2c0-2.2-.4-4.2-1.1-5.9ZM522.7,420.9c0,.6-.1,1.2-.3,1.8-.2.6-.5,1.1-.9,1.5-.4.5-.8.9-1.4,1.3-.5.4-1.1.7-1.8,1-.7.3-1.4.5-2.2.6-.8.2-1.6.2-2.4.2s-1.7,0-2.4-.3c-.7-.2-1.3-.4-1.8-.8-.5-.3-.8-.7-1.1-1.2-.3-.5-.4-1-.4-1.6s.1-1.1.4-1.6c.2-.4.6-.8,1.1-1.1.5-.3,1.1-.5,1.8-.7.7-.1,1.5-.2,2.4-.2h9.1v1Z"/>
    </g>
    <g>
      <path class="st5" d="M151,427.2v.4c0-.1,0-.2,0-.4h0Z"/>
      <path class="st5" d="M166.4,393.9c-1.4-3.5-3.5-6.4-6.2-8.8-2.7-2.4-6-4.2-9.9-5.5-3.9-1.3-8.3-1.9-13.2-1.9s-9.1.6-12.9,1.8c-3.8,1.2-7.1,2.9-9.8,5.1-2.7,2.2-4.8,4.9-6.2,8-1.4,3.2-2.2,6.7-2.2,10.6h17.5c0-1.8.3-3.4.8-4.9.5-1.4,1.3-2.7,2.4-3.7,1.1-1,2.4-1.8,4.1-2.3,1.6-.5,3.6-.8,5.9-.8s4.3.3,6,1c1.8.6,3.3,1.6,4.5,2.8,1.2,1.2,2.1,2.7,2.8,4.5.6,1.8,1,3.8,1,6v1.5h-20c-4.2,0-8,.4-11.3,1.3-3.3.9-6.1,2.2-8.4,3.8-2.3,1.7-4.1,3.7-5.3,6.1-1.2,2.4-1.8,5.1-1.8,8.2s.5,5.5,1.6,7.8c1.1,2.4,2.6,4.4,4.5,6.1,1.9,1.7,4.2,3,6.9,3.9,2.7.9,5.7,1.4,9,1.4s4.2-.2,6.1-.6c1.9-.4,3.8-1,5.4-1.7,1.7-.8,3.3-1.7,4.7-2.7,1.4-1.1,2.7-2.3,3.8-3.7,1.1-1.4,2.1-2.9,2.9-4.6.8-1.6,1.4-3.2,1.9-5v-.4h0c0,.1,0,.2,0,.4v16.5h17.6v-38.3c0-4.4-.7-8.4-2.2-11.8ZM151,419.8c0,1.2-.2,2.4-.6,3.5-.4,1.1-1,2.2-1.7,3.1-.8,1-1.7,1.9-2.7,2.6-1.1.8-2.3,1.4-3.6,2-1.3.5-2.8,1-4.3,1.3-1.5.3-3.2.4-4.9.4s-3.4-.2-4.8-.5c-1.4-.4-2.6-.8-3.6-1.5-1-.6-1.7-1.4-2.2-2.4-.5-1-.8-2-.8-3.3s.3-2.2.7-3.1c.5-.9,1.2-1.7,2.1-2.3.9-.6,2.1-1.1,3.5-1.4,1.4-.3,3-.4,4.8-.4h18.2v1.9Z"/>
      <rect class="st5" x="178" y="357.3" width="17.5" height="86.8"/>
      <path class="st5" d="M251.3,424.2v.2c0,0,0-.2,0-.3h0ZM251.3,399.1v.3h0s0-.2,0-.3Z"/>
      <path class="st5" d="M251.3,357.3v41.8c0,0,0,.2,0,.3h0v-.3c-.7-3.3-1.7-6.3-2.9-8.9-1.3-2.7-2.9-5-4.7-6.8-1.9-1.9-4-3.3-6.3-4.2-2.4-1-5-1.5-7.8-1.5s-5,.4-7.3,1.1c-2.3.8-4.4,1.8-6.3,3.2-1.9,1.4-3.7,3.1-5.2,5.1-1.5,2-2.9,4.3-3.9,6.8-1.1,2.5-1.9,5.3-2.5,8.3-.6,3-.9,6.1-.9,9.5s.3,6.5.9,9.5c.6,3,1.4,5.7,2.5,8.3s2.4,4.8,3.9,6.8c1.5,2,3.3,3.7,5.2,5.1,1.9,1.4,4.1,2.5,6.3,3.3,2.3.8,4.7,1.1,7.3,1.1s5.4-.5,7.8-1.5c2.4-1,4.5-2.4,6.3-4.2,1.8-1.9,3.4-4.1,4.7-6.8,1.2-2.6,2.2-5.6,2.9-8.9v-.2h0s0,.1,0,.2v19.7h17.5v-86.8h-17.5ZM250.8,417.3c-.3,1.7-.8,3.3-1.3,4.7-.6,1.4-1.3,2.7-2.2,3.7-.9,1.1-1.9,2-3,2.7-1.1.7-2.4,1.3-3.8,1.6-1.4.4-2.9.6-4.5.6-2.5,0-4.6-.4-6.5-1.2s-3.4-2-4.7-3.6c-1.3-1.6-2.2-3.6-2.9-6-.6-2.4-1-5.1-1-8.2s.3-5.8,1-8.2c.6-2.4,1.6-4.3,2.8-5.9,1.3-1.6,2.8-2.8,4.7-3.6,1.9-.8,4-1.2,6.5-1.2s3.1.2,4.5.5c1.4.4,2.6.9,3.8,1.7s2.1,1.6,3,2.7c.9,1.1,1.6,2.3,2.2,3.7.6,1.4,1,3,1.3,4.7.3,1.7.5,3.6.5,5.6s-.2,3.9-.5,5.6Z"/>
      <path class="st5" d="M337.9,397.7c-1.5-4.2-3.6-7.7-6.4-10.7-2.8-3-6.1-5.2-10-6.8-3.9-1.6-8.2-2.4-13-2.4s-9.2.8-13.2,2.5c-4,1.6-7.4,3.9-10.2,6.9-2.8,3-5,6.6-6.6,10.7-1.5,4.2-2.3,8.8-2.3,13.9s.8,9.7,2.3,13.9c1.6,4.2,3.8,7.8,6.7,10.8,2.9,3,6.3,5.3,10.3,7,4,1.6,8.4,2.5,13.3,2.5s7.6-.5,11-1.6c3.4-1.1,6.4-2.7,9.1-4.7,2.7-2,4.9-4.5,6.8-7.4,1.9-2.9,3.2-6.2,4.1-9.9h-16.5c-.6,1.6-1.4,3-2.3,4.2-.9,1.2-1.9,2.2-3.1,3-1.1.8-2.5,1.4-3.9,1.8-1.4.4-3,.6-4.7.6-2.6,0-4.9-.4-6.9-1.3-2-.9-3.7-2.1-5.1-3.8-1.4-1.6-2.5-3.6-3.2-5.9-.4-1.4-.8-2.8-.9-4.4h46.7c0-.8.1-1.6.2-2.4,0-.8,0-1.6,0-2.4,0-5.1-.8-9.8-2.3-13.9ZM293.3,405.5c.2-1.1.4-2.1.7-3,.7-2.3,1.7-4.4,3-6,1.4-1.6,3-2.9,4.9-3.8,1.9-.8,4.1-1.3,6.6-1.3s4.7.4,6.5,1.3c1.9.9,3.5,2.2,4.7,3.8,1.3,1.7,2.3,3.8,2.9,6.3.2.8.4,1.7.5,2.6h-29.9Z"/>
      <path class="st5" d="M365.4,372.7h-17.9v-15.4h17.9v15.4ZM365.2,444.1h-17.6v-64.6h17.6v64.6Z"/>
      <path class="st5" d="M419.2,427.2v.3c0,0,0-.2,0-.3h0Z"/>
      <path class="st5" d="M434.7,393.9c-1.4-3.5-3.5-6.4-6.2-8.8-2.7-2.4-6-4.2-9.9-5.5-3.9-1.3-8.3-1.9-13.2-1.9s-9.1.6-12.9,1.8c-3.8,1.2-7.1,2.9-9.8,5.1-2.7,2.2-4.7,4.9-6.2,8-1.5,3.2-2.2,6.7-2.2,10.6h17.5c0-1.8.3-3.4.8-4.9.5-1.4,1.3-2.7,2.4-3.7,1.1-1,2.4-1.8,4.1-2.3,1.6-.5,3.6-.8,5.9-.8s4.3.3,6,1c1.8.6,3.3,1.6,4.5,2.8,1.2,1.2,2.1,2.7,2.8,4.5.7,1.8,1,3.8,1,6v1.5h-20c-4.2,0-8,.4-11.3,1.3-3.3.9-6.1,2.2-8.4,3.8-2.3,1.7-4.1,3.7-5.3,6.1-1.2,2.4-1.9,5.1-1.9,8.2s.5,5.5,1.6,7.8c1.1,2.4,2.6,4.4,4.5,6.1,1.9,1.7,4.2,3,6.9,3.9,2.7.9,5.7,1.4,9,1.4s4.1-.2,6.1-.6c1.9-.4,3.8-1,5.4-1.7,1.7-.8,3.2-1.7,4.7-2.7,1.4-1.1,2.7-2.3,3.8-3.7,1.1-1.4,2.1-2.9,2.9-4.6.8-1.6,1.4-3.3,1.9-5.1v-.3h0c0,0,0,.2,0,.3v16.6h17.5v-38.3c0-4.4-.7-8.4-2.1-11.8ZM419.2,419.8c0,1.2-.2,2.4-.6,3.5-.4,1.1-1,2.2-1.7,3.1-.8,1-1.7,1.9-2.7,2.6-1.1.8-2.3,1.4-3.6,2-1.3.5-2.8,1-4.3,1.3-1.5.3-3.2.4-4.9.4s-3.4-.2-4.9-.5c-1.4-.4-2.6-.8-3.6-1.5-.9-.6-1.7-1.4-2.2-2.4-.5-1-.8-2-.8-3.3s.2-2.2.7-3.1c.5-.9,1.2-1.7,2.1-2.3.9-.6,2.1-1.1,3.5-1.4,1.4-.3,3-.4,4.8-.4h18.2v1.9Z"/>
    </g>
    <g>
      <path class="st5" d="M619.3,425.4c0,3.3-.7,6.1-2,8.7-1.4,2.6-3.3,4.7-5.9,6.5-2.6,1.7-5.8,3.1-9.6,4-3.8.9-8.1,1.4-13,1.4s-9.7-.5-13.6-1.5c-3.9-1-7.2-2.5-9.9-4.5-2.7-2-4.6-4.4-6-7.2-1.4-2.8-2-6.1-2-9.8h17.3c0,1.6.3,3,.8,4.3.6,1.3,1.5,2.3,2.6,3.2,1.2.8,2.6,1.5,4.4,1.9,1.8.4,3.8.7,6.2.7s3.9-.1,5.6-.5c1.6-.3,3-.8,4.2-1.4,1.1-.6,2-1.4,2.7-2.3.6-.9.9-1.9.9-3s-.2-1.7-.5-2.4c-.3-.7-.8-1.3-1.4-1.8-.6-.5-1.4-1-2.2-1.3-.9-.4-1.9-.7-2.9-1-1.1-.3-2.3-.6-3.5-.8-1.3-.2-2.6-.5-4-.7l-4.3-.8c-1.6-.3-3.3-.6-5.1-.9-1.9-.4-3.7-.8-5.5-1.5-1.8-.6-3.6-1.3-5.3-2.2-1.7-.9-3.2-2-4.5-3.3-1.3-1.3-2.3-2.9-3.1-4.7-.8-1.8-1.1-3.9-1.1-6.4s.7-5.9,2-8.4c1.3-2.5,3.2-4.6,5.7-6.3,2.5-1.7,5.5-3.1,9.1-4,3.6-.9,7.6-1.4,12.1-1.4s9,.5,12.7,1.5c3.7,1,6.9,2.5,9.4,4.5,2.6,1.9,4.5,4.3,5.8,7.1,1.4,2.8,2,5.9,2,9.4h-17.3c0-1.5-.3-2.8-.8-4-.5-1.2-1.3-2.2-2.3-3-1.1-.8-2.3-1.5-3.9-1.9-1.5-.4-3.3-.7-5.3-.7s-3.4.2-4.8.5c-1.5.4-2.7.8-3.8,1.4-1.1.6-1.9,1.4-2.4,2.2s-.9,1.8-.9,2.8.2,1.6.5,2.2c.4.6.8,1.2,1.4,1.7.6.5,1.3.9,2.2,1.2.8.4,1.8.7,2.8.9,1,.3,2,.5,3.2.7,1.1.2,2.3.4,3.4.6l4.3.7c1.7.3,3.6.6,5.5,1,1.9.4,3.9.9,5.7,1.5,1.9.6,3.7,1.4,5.5,2.3,1.7.9,3.3,2,4.6,3.4,1.3,1.4,2.4,3,3.2,4.9.8,1.9,1.2,4.1,1.2,6.7Z"/>
      <path class="st5" d="M685.3,397.7c-1.5-4.2-3.6-7.7-6.4-10.7-2.8-3-6.1-5.2-10-6.8-3.9-1.6-8.2-2.4-13-2.4s-9.2.8-13.2,2.5c-4,1.6-7.4,3.9-10.2,6.9-2.8,3-5,6.6-6.6,10.7-1.5,4.2-2.3,8.8-2.3,13.9s.8,9.7,2.3,13.9c1.6,4.2,3.8,7.8,6.7,10.8,2.9,3,6.3,5.3,10.3,7,4,1.6,8.5,2.5,13.3,2.5s7.6-.5,11-1.6c3.4-1.1,6.4-2.7,9.1-4.7,2.7-2,4.9-4.5,6.8-7.4,1.9-2.9,3.3-6.2,4.2-9.9h-16.5c-.6,1.6-1.4,3-2.3,4.2-.9,1.2-1.9,2.2-3.1,3-1.1.8-2.5,1.4-3.9,1.8-1.4.4-3,.6-4.7.6-2.6,0-4.9-.4-6.9-1.3-2-.9-3.7-2.1-5.1-3.8-1.4-1.6-2.5-3.6-3.2-5.9-.4-1.4-.8-2.8-.9-4.4h46.7c0-.8.1-1.6.2-2.4,0-.8,0-1.6,0-2.4,0-5.1-.8-9.8-2.3-13.9ZM640.8,405.5c.2-1.1.4-2.1.7-3,.7-2.3,1.7-4.4,3-6,1.3-1.6,3-2.9,4.9-3.8,1.9-.8,4.1-1.3,6.6-1.3s4.7.4,6.5,1.3c1.9.9,3.5,2.2,4.7,3.8,1.3,1.7,2.2,3.8,2.9,6.3.2.8.4,1.7.5,2.6h-29.9Z"/>
      <path class="st5" d="M712.7,444.1h-17.6v-64.6h17.6v22.8h0c.5-3.4,1.4-6.6,2.5-9.4,1.1-2.8,2.6-5.2,4.4-7.2,1.8-2,3.9-3.5,6.3-4.6,2.4-1.1,5.3-1.6,8.4-1.6h3.8v16.5h-6.8c-3.6,0-6.6.4-9,1.1-2.4.7-4.3,1.9-5.7,3.4-1.4,1.5-2.5,3.5-3,5.8-.6,2.3-.9,5.1-.9,8.3v29.5Z"/>
      <path class="st5" d="M761.1,444.1h-17.6v-64.6h17.6v22.8h0c.5-3.4,1.4-6.6,2.5-9.4,1.1-2.8,2.6-5.2,4.4-7.2,1.8-2,3.9-3.5,6.3-4.6,2.4-1.1,5.3-1.6,8.4-1.6h3.8v16.5h-6.8c-3.6,0-6.6.4-9,1.1-2.4.7-4.3,1.9-5.7,3.4-1.4,1.5-2.5,3.5-3,5.8-.6,2.3-.9,5.1-.9,8.3v29.5Z"/>
      <path class="st5" d="M836.6,427.2v.4c0-.1,0-.2,0-.4h0Z"/>
      <path class="st5" d="M852,393.9c-1.4-3.5-3.5-6.4-6.2-8.8-2.7-2.4-6-4.2-9.9-5.5-3.9-1.3-8.3-1.9-13.2-1.9s-9.1.6-12.9,1.8c-3.8,1.2-7.1,2.9-9.8,5.1-2.7,2.2-4.8,4.9-6.2,8-1.4,3.2-2.2,6.7-2.2,10.6h17.5c0-1.8.3-3.4.8-4.9.5-1.4,1.3-2.7,2.4-3.7,1.1-1,2.4-1.8,4.1-2.3,1.6-.5,3.6-.8,5.9-.8s4.2.3,6,1c1.8.6,3.3,1.6,4.5,2.8,1.2,1.2,2.1,2.7,2.8,4.5.6,1.8,1,3.8,1,6v1.5h-20c-4.2,0-8,.4-11.3,1.3-3.3.9-6.1,2.2-8.4,3.8-2.3,1.7-4.1,3.7-5.3,6.1-1.2,2.4-1.8,5.1-1.8,8.2s.5,5.5,1.6,7.8c1.1,2.4,2.6,4.4,4.5,6.1,1.9,1.7,4.2,3,6.9,3.9,2.7.9,5.7,1.4,9,1.4s4.1-.2,6.1-.6c1.9-.4,3.8-1,5.4-1.7,1.7-.8,3.2-1.7,4.7-2.7,1.4-1.1,2.7-2.3,3.8-3.7,1.1-1.4,2.1-2.9,2.9-4.6.8-1.6,1.4-3.2,1.9-5v-.4h0c0,.1,0,.2,0,.4v16.5h17.6v-38.3c0-4.4-.7-8.4-2.1-11.8ZM836.6,419.8c0,1.2-.2,2.4-.6,3.5-.4,1.1-1,2.2-1.7,3.1-.8,1-1.7,1.9-2.7,2.6-1.1.8-2.3,1.4-3.6,2-1.3.5-2.8,1-4.3,1.3-1.5.3-3.2.4-4.9.4s-3.4-.2-4.9-.5c-1.4-.4-2.6-.8-3.6-1.5-1-.6-1.7-1.4-2.2-2.4-.5-1-.8-2-.8-3.3s.2-2.2.7-3.1c.5-.9,1.2-1.7,2.1-2.3.9-.6,2.1-1.1,3.5-1.4,1.4-.3,3-.4,4.8-.4h18.2v1.9Z"/>
    </g>
  </g>
  <g>
    <path class="st2" d="M367.3,104.8c1.2.4,2.3.9,3.2,1.7.9.7,1.6,1.6,2.1,2.6.5,1,.7,2.2.7,3.5h-2.8c0-.9-.2-1.7-.5-2.4-.4-.7-.9-1.3-1.5-1.8-.7-.5-1.4-.9-2.3-1.1-.9-.3-1.9-.4-3-.4s-1.3,0-1.9.1c-.6,0-1.2.2-1.7.4s-1.1.4-1.5.7-.9.6-1.2,1c-.3.4-.6.8-.8,1.3-.2.5-.3,1-.3,1.6s0,1,.3,1.4.4.7.7,1c.3.3.7.5,1.1.7.4.2.9.4,1.5.5.5.1,1.1.3,1.7.4.6.1,1.3.2,2,.3l1.6.3c.7.1,1.4.2,2.2.4s1.5.3,2.2.6c.7.2,1.4.5,2,.9s1.2.8,1.7,1.3c.5.5.9,1.1,1.1,1.9.3.7.4,1.6.4,2.6s-.3,2.5-.8,3.5c-.5,1-1.3,1.9-2.2,2.5-.9.7-2.1,1.2-3.4,1.5-1.3.3-2.8.5-4.4.5s-3.2-.2-4.6-.6c-1.4-.4-2.5-1-3.5-1.7-1-.7-1.7-1.6-2.2-2.7-.5-1.1-.8-2.3-.8-3.7h2.8c0,.9.2,1.8.6,2.5.4.7.9,1.4,1.7,1.9.7.5,1.6.9,2.6,1.2,1,.3,2.1.4,3.4.4s2.2-.1,3.1-.3c1-.2,1.8-.6,2.5-1,.7-.5,1.3-1,1.7-1.7.4-.7.6-1.5.6-2.4s0-1.1-.3-1.6c-.2-.4-.4-.8-.7-1.1-.3-.3-.7-.6-1.1-.8-.4-.2-.9-.4-1.4-.6-.5-.2-1.1-.3-1.7-.4-.6-.1-1.2-.2-1.8-.3l-1.8-.3c-.7-.1-1.4-.2-2.2-.4-.8-.1-1.5-.3-2.2-.5-.7-.2-1.4-.5-2-.8-.6-.3-1.2-.7-1.6-1.2-.5-.5-.8-1.1-1.1-1.7-.3-.7-.4-1.5-.4-2.4s.1-1.6.4-2.4.6-1.4,1-2c.4-.6,1-1.1,1.6-1.5.6-.4,1.3-.8,2.1-1.1s1.6-.5,2.4-.7,1.8-.2,2.7-.2c1.5,0,2.9.2,4.1.6Z"/>
    <path class="st2" d="M409.3,131.8h-2.9v-12.7l.3.5h-16.8l.4-.5v12.7h-2.9v-27h2.9v12.7l-.4-.5h16.8l-.3.5v-12.7h2.9v27Z"/>
    <path class="st2" d="M422.6,114.3c.3-1.2.7-2.4,1.2-3.4s1.1-2,1.9-2.8c.7-.8,1.6-1.5,2.5-2.1.9-.6,1.9-1,3-1.3,1.1-.3,2.3-.5,3.5-.5s2.4.2,3.5.5c1.1.3,2.1.8,3,1.3.9.6,1.7,1.3,2.5,2.1.7.8,1.4,1.8,1.9,2.8.5,1,.9,2.2,1.2,3.4.3,1.2.4,2.6.4,4s-.1,2.7-.4,4c-.3,1.2-.7,2.4-1.2,3.4s-1.1,2-1.9,2.8c-.7.8-1.6,1.5-2.5,2.1-.9.6-1.9,1-3,1.3-1.1.3-2.3.5-3.5.5s-2.4-.2-3.5-.5c-1.1-.3-2.1-.8-3-1.3-.9-.6-1.7-1.3-2.5-2.1-.7-.8-1.3-1.8-1.9-2.8s-.9-2.2-1.2-3.4c-.3-1.2-.4-2.6-.4-4s.1-2.7.4-4ZM425.4,121.5c.2,1,.5,1.9.9,2.8.4.8.8,1.6,1.4,2.3.6.7,1.2,1.2,1.9,1.7s1.5.8,2.3,1,1.8.4,2.7.4,1.9-.1,2.7-.4c.8-.2,1.6-.6,2.3-1,.7-.5,1.3-1,1.9-1.7s1-1.4,1.4-2.3c.4-.8.7-1.8.9-2.8.2-1,.3-2.1.3-3.3s0-2.3-.3-3.3c-.2-1-.5-1.9-.9-2.8-.4-.8-.9-1.6-1.4-2.3s-1.2-1.2-1.9-1.7c-.7-.5-1.5-.8-2.3-1-.9-.2-1.8-.4-2.7-.4s-1.9.1-2.7.4c-.9.2-1.6.6-2.3,1s-1.3,1-1.9,1.7c-.5.7-1,1.4-1.4,2.3-.4.8-.7,1.8-.9,2.8-.2,1-.3,2.1-.3,3.3s0,2.3.3,3.3Z"/>
    <path class="st2" d="M459.9,104.7h11.9c1.4,0,2.7.2,3.9.6,1.2.4,2.2,1,3,1.7.8.7,1.5,1.6,2,2.7.5,1,.7,2.2.7,3.4s-.2,2.4-.7,3.4c-.5,1-1.1,1.9-2,2.7s-1.9,1.3-3,1.7c-1.2.4-2.5.6-3.9.6h-9.7l.7-.7v10.8h-2.9v-27ZM462.8,107v12.6l-.5-.6h9.3c1.1,0,2-.1,2.9-.4.9-.3,1.6-.7,2.2-1.2.6-.5,1.1-1.1,1.4-1.8.3-.7.5-1.5.5-2.4s-.2-1.7-.5-2.4c-.3-.7-.8-1.3-1.4-1.8-.6-.5-1.3-.9-2.2-1.1-.9-.3-1.8-.4-2.9-.4h-9.2l.3-.4Z"/>
    <path class="st2" d="M493.6,104.7h11.9c1.4,0,2.7.2,3.9.6,1.2.4,2.2,1,3,1.7.8.7,1.5,1.6,2,2.7.5,1,.7,2.2.7,3.4s-.2,2.4-.7,3.4c-.5,1-1.1,1.9-2,2.7s-1.9,1.3-3,1.7c-1.2.4-2.5.6-3.9.6h-9.7l.7-.7v10.8h-2.9v-27ZM496.5,107v12.6l-.5-.6h9.3c1.1,0,2-.1,2.9-.4.9-.3,1.6-.7,2.2-1.2.6-.5,1.1-1.1,1.4-1.8.3-.7.5-1.5.5-2.4s-.2-1.7-.5-2.4c-.3-.7-.8-1.3-1.4-1.8-.6-.5-1.3-.9-2.2-1.1-.9-.3-1.8-.4-2.9-.4h-9.2l.3-.4Z"/>
    <path class="st2" d="M532.5,131.8h-2.9v-27h2.9v27Z"/>
    <path class="st2" d="M569.5,131.8h-4.6l-16-25.1h0s0,25.1,0,25.1h-2.8v-27h5l15.6,24.4h0s0-24.4,0-24.4h2.8v27Z"/>
    <path class="st2" d="M584.5,121.5c.2,1,.5,1.9.8,2.8.4.8.8,1.6,1.4,2.3.5.7,1.2,1.2,1.8,1.7.7.5,1.4.8,2.3,1s1.7.4,2.7.4,1.8-.1,2.6-.3c.8-.2,1.6-.5,2.3-.9.7-.4,1.4-.9,1.9-1.4.6-.6,1.1-1.2,1.5-1.8.4-.7.7-1.4.9-2.2.2-.8.3-1.6.3-2.5v-.5l.5.4h-10.2v-2.6h12.5v14h-2.8v-8.8h.2c-.2,1.4-.7,2.7-1.3,3.8-.6,1.1-1.4,2.1-2.3,3-.9.8-2,1.5-3.1,1.9-1.2.5-2.5.7-3.8.7s-2.2-.2-3.2-.5c-1-.3-1.9-.8-2.8-1.4-.8-.6-1.6-1.3-2.3-2.1-.7-.8-1.3-1.8-1.7-2.8-.5-1-.8-2.2-1.1-3.4-.3-1.2-.4-2.5-.4-3.9s.1-2.7.4-3.9.7-2.4,1.2-3.4c.5-1,1.1-2,1.9-2.8.7-.8,1.6-1.5,2.5-2.1.9-.6,1.9-1,3-1.3,1.1-.3,2.3-.5,3.5-.5s2,.1,2.9.3c.9.2,1.8.5,2.6.9s1.5.9,2.2,1.4c.7.6,1.3,1.2,1.8,1.9s1,1.5,1.4,2.3c.4.8.7,1.8.9,2.7h-2.9c-.3-1.1-.7-2-1.2-2.9-.5-.9-1.2-1.6-1.9-2.2-.8-.6-1.6-1.1-2.6-1.4-1-.3-2-.5-3.2-.5s-1.9.1-2.7.4c-.8.2-1.6.6-2.3,1s-1.3,1-1.9,1.7c-.5.7-1,1.4-1.4,2.3-.4.8-.7,1.8-.9,2.8-.2,1-.3,2.1-.3,3.3s0,2.3.3,3.3Z"/>
  </g>
</svg>